<svg height='100px' width='100px'  fill="#000000" xmlns="http://www.w3.org/2000/svg" xmlns:xlink="http://www.w3.org/1999/xlink" version="1.1" x="0px" y="0px" viewBox="0 0 85.812 85.812" enable-background="new 0 0 85.812 85.812" xml:space="preserve"><g><path d="M70.69,14.121c-15.621-15.62-40.945-15.62-56.568,0c-15.621,15.62-15.62,40.946,0,56.567   c15.624,15.623,40.949,15.623,56.569,0.002C86.312,55.071,86.313,29.744,70.69,14.121z M54.871,59.29L42.406,46.825L29.942,59.29   c-1.223,1.223-3.202,1.222-4.422,0.002c-1.223-1.224-1.221-3.2,0-4.422l12.466-12.466L25.522,29.941   c-1.223-1.223-1.223-3.201,0-4.421c1.219-1.222,3.199-1.223,4.42,0l12.465,12.464L54.87,25.52c1.222-1.222,3.199-1.222,4.42,0.001   c1.221,1.219,1.222,3.198,0.001,4.419L46.826,42.404l12.465,12.466c1.222,1.222,1.222,3.201,0,4.422S56.093,60.512,54.871,59.29z"></path></g></svg>